<?xml version="1.0" encoding="utf-8"?>
<!-- Generator: Adobe Illustrator 23.0.6, SVG Export Plug-In . SVG Version: 6.00 Build 0)  -->
<svg version="1.1" id="Layer_1" xmlns="http://www.w3.org/2000/svg" xmlns:xlink="http://www.w3.org/1999/xlink" x="0px" y="0px"
	 viewBox="0 0 60 60" style="enable-background:new 0 0 60 60;" xml:space="preserve">
<style type="text/css">
	.st0{fill-rule:evenodd;clip-rule:evenodd;fill:#2BD6D0;}
	.st1{fill-rule:evenodd;clip-rule:evenodd;fill:#FFFFFF;}
	.st2{fill-rule:evenodd;clip-rule:evenodd;fill:#00175C;}
</style>
<title>blinky</title>
<desc>Created with Sketch.</desc>
<g id="Page-1_1_">
	<g id="pinky_2_">
		<g id="Group-21_1_">
			<g id="Group-22_1_">
				<path id="Rectangle-21_1_" class="st0" d="M30,0.4c24,0.1,33.3,15.8,28,47.3l-4-5.2l-3.8,4.7l-2.9-4.7l-3,4.7l-4.6-4.7l-3.2,5.2
					l-3.1-5.2c-1.7,2.5-2.9,4.3-3.5,5.2c-0.9,1.4-4.3,6.6-5,6.9C11.5,61.8,3.8,59.5,2,47.7C-3.3,16.1,6,0.3,30,0.4z"/>
				<polygon id="Rectangle-23_1_" class="st0" points="55.3,1 57.2,19 44.9,19 				"/>
				<polygon class="st0" points="3.7,0.4 13.9,18.7 1.5,25.2 				"/>
			</g>
			<path id="Rectangle-22_1_" class="st0" d="M6.9,52.7L33.8,48l3.8,5.5l3.8-4.3l4.3,4.3l2.5-4.9l4.3,6.2l4-2.9l0,0l0,0
				c-0.5,4.4-4.3,7.7-8.7,7.7L13,59.2l0,0c-2.9,0-5.3-2.1-5.8-4.9L6.9,52.7z"/>
			<g id="Group-20_1_" transform="translate(19.000000, 16.000000)">
				<circle id="Oval-22_1_" class="st1" cx="9.1" cy="8.9" r="9.3"/>
				<circle class="st2" cx="13.1" cy="9" r="4"/>
				<circle class="st1" cx="28.1" cy="8.9" r="9.3"/>
				<circle class="st2" cx="32.1" cy="8.7" r="4"/>
			</g>
		</g>
	</g>
</g>
</svg>
