<?xml version="1.0" encoding="UTF-8"?>
<svg width="60px" height="60px" viewBox="0 0 60 60" version="1.1" xmlns="http://www.w3.org/2000/svg" xmlns:xlink="http://www.w3.org/1999/xlink">
    <!-- Generator: Sketch 45.1 (43504) - http://www.bohemiancoding.com/sketch -->
    <title>clyde</title>
    <desc>Created with Sketch.</desc>
    <defs></defs>
    <g id="Page-1" stroke="none" stroke-width="1" fill="none" fill-rule="evenodd">
        <g id="clyde">
            <g id="Group-21">
                <g id="Group-22" fill="#6CE1FF">
                    <path d="M30.1171576,0.726493519 C54.1171058,0.796776528 63.4562068,16.554612 58.1344606,48 L54.1289854,42.7559038 L50.3323206,47.4813124 L47.4339926,42.7559038 L44.4510657,47.4813124 L39.8888048,42.7559038 L36.7039625,48 L33.5905779,42.7559038 C31.8571352,45.2920922 30.6797066,47.0401243 30.0582921,48 C29.1261703,49.4398136 25.7971139,54.5500746 25.0905524,54.9266919 C11.5915074,62.1220641 3.94735223,59.8131669 2.15808679,48 C-3.20248079,16.414046 6.11720949,0.656210509 30.1171576,0.726493519 Z" id="Rectangle-21"></path>
                    <polygon id="Rectangle-23" points="55.4091738 1.32618534 57.3816429 19.2840409 45 19.2840409"></polygon>
                    <polygon id="Rectangle-23" points="3.79775416 0.726259456 14.0546192 18.9795136 1.67297627 25.5579554"></polygon>
                </g>
                <path d="M7,53 L33.9323117,48.3582258 L37.6937488,53.8639726 L41.4792046,49.5378668 L45.828876,53.8639726 L48.3114245,48.914284 L52.6470472,55.0853067 L56.6092453,52.2343187 L56.6092453,52.2343187 L56.6092453,52.2343187 C56.0913857,56.6490147 52.3245714,59.9606232 47.8799085,59.908747 L13.127987,59.5031372 L13.127987,59.5031372 C10.2659436,59.4697327 7.82599401,57.4193899 7.300141,54.6058713 L7,53 Z" id="Rectangle-22" fill="#6CE1FF"></path>
                <g id="Group-20" transform="translate(19.000000, 16.000000)">
                    <circle id="Oval-22" fill="#FFFFFF" cx="9.26221701" cy="9.26221701" r="9.26221701"></circle>
                    <circle id="Oval-22" fill="#0433FF" cx="9.27754294" cy="9.27754294" r="3.98854419"></circle>
                    <circle id="Oval-22" fill="#FFFFFF" cx="28.262217" cy="9.26221701" r="9.26221701"></circle>
                    <circle id="Oval-22" fill="#0433FF" cx="28.262217" cy="8.98854419" r="3.98854419"></circle>
                </g>
            </g>
        </g>
    </g>
</svg>