<?xml version="1.0" encoding="utf-8"?>
<!-- Generator: Adobe Illustrator 23.0.6, SVG Export Plug-In . SVG Version: 6.00 Build 0)  -->
<svg version="1.1" id="Layer_1" xmlns="http://www.w3.org/2000/svg" xmlns:xlink="http://www.w3.org/1999/xlink" x="0px" y="0px"
	 viewBox="0 0 60 60" style="enable-background:new 0 0 60 60;" xml:space="preserve">
<style type="text/css">
	.st0{fill-rule:evenodd;clip-rule:evenodd;fill:#409FDE;}
	.st1{fill-rule:evenodd;clip-rule:evenodd;fill:#FFFFFF;}
	.st2{fill-rule:evenodd;clip-rule:evenodd;fill:#00175C;}
</style>
<title>pinky</title>
<desc>Created with Sketch.</desc>
<g>
	<g>
		<path class="st0" d="M30,0.3c24,0.1,33.3,15.8,28,47.3l-4-5.2l-3.8,4.7l-2.9-4.7l-3,4.7l-4.6-4.7l-3.1,5.2l-3.1-5.2
			c-1.7,2.5-2.9,4.3-3.5,5.2c-0.9,1.4-4.3,6.6-5,6.9c-13.5,7.2-21.2,4.9-22.9-6.9C-3.3,16,6,0.4,30,0.3z"/>
		<path class="st0" d="M55.3,0.9l2,18H44.9L55.3,0.9z"/>
		<path class="st0" d="M3.7,0.3L14,18.6L1.6,25.2L3.7,0.3z"/>
		<path class="st0" d="M6.9,52.7l26.9-4.6l3.8,5.5l3.8-4.3l4.3,4.3l2.5-4.9l4.3,6.2l4-2.9c-0.5,4.4-4.3,7.7-8.7,7.7L13,59.2
			c-2.9,0-5.3-2.1-5.8-4.9L6.9,52.7z"/>
	</g>
	<circle class="st1" cx="28.2" cy="24.9" r="9.3"/>
	<circle class="st2" cx="32.2" cy="24.9" r="4"/>
	<circle class="st1" cx="47.2" cy="24.9" r="9.3"/>
	<circle class="st2" cx="51.2" cy="24.6" r="4"/>
</g>
</svg>
