<?xml version="1.0" encoding="UTF-8"?>
<svg width="30px" height="44px" viewBox="0 0 30 44" version="1.1" xmlns="http://www.w3.org/2000/svg" xmlns:xlink="http://www.w3.org/1999/xlink">
    <!-- Generator: Sketch 45.1 (43504) - http://www.bohemiancoding.com/sketch -->
    <title>Group 15</title>
    <desc>Created with Sketch.</desc>
    <defs></defs>
    <g id="Page-1" stroke="none" stroke-width="1" fill="none" fill-rule="evenodd">
        <g id="Group-15">
            <path d="M21.9104686,0.651223644 C20.8489274,2.25703922 19.8087007,4.01505996 18.7688662,5.62087553 L16.2082478,5.82696541 L16.3373118,0.314635711 C16.3373118,0.314635711 15.5216066,1.67567167 15.3261146,1.99770307 C14.4726187,3.44927045 13.6189921,4.90122091 12.7654962,6.35278829 C12.7654962,6.35278829 -0.180520858,10.9960674 9.84514633,26.7611771 C9.84514633,26.7611771 10.4331915,39.2703476 0.168226428,41.608076 C2.2876475,42.391575 10.1996472,41.7427877 11.574891,39.6992546 C11.8043816,39.7412643 11.8043816,39.741392 12.0338723,39.7834016 C12.0338723,39.7834016 12.3388136,42.885348 13.2146702,43.5567362 C14.5203476,44.5576895 16.3309043,41.2118573 16.6171465,40.2673425 C17.0689357,40.2322281 17.5208557,40.1972413 17.9726449,40.1621269 C18.137669,40.3725582 18.7323831,41.2555269 18.8972764,41.4659582 C19.4222934,42.1314727 20.0725822,42.7980088 20.7908682,43.2753099 C21.050173,43.4475622 21.5638136,43.8699571 22.0819001,43.6749761 C23.2513215,43.2348325 22.2912531,39.7731865 22.2546392,38.4790595 C22.5744876,38.0767118 22.9939782,37.758128 23.2659671,37.3008741 C24.0529041,35.9782725 23.8146523,30.9312411 23.8146523,30.9312411 C29.2413536,30.6584976 28.9680571,27.9807338 28.9680571,27.9807338 L27.6340039,28.1490277 C27.6340039,28.1490277 27.490556,28.0367892 27.4188973,27.9807338 C27.4761719,27.6301 27.5909826,26.8726495 27.5909826,26.8445579 C27.2682573,27.0128519 26.622676,27.3495675 26.622676,27.3495675 L26.5366334,27.2863615 C26.5366334,27.2863615 26.6252913,26.5669623 26.6442521,26.2133917 C26.3215268,26.339676 25.9986708,26.4658327 25.6759455,26.592117 C25.6041561,26.5290387 25.5324975,26.4658327 25.4607081,26.4027544 C25.4248788,25.9398821 25.3890495,25.4770098 25.3530895,25.0142653 C25.0375562,25.1964773 24.4925323,25.6032942 24.4925323,25.6032942 C24.4063589,25.6032942 24.5145007,24.7412664 24.6215963,24.4251087 C24.2544113,24.4589463 23.3448177,24.7546738 23.3305644,24.7407557 C23.4237991,24.3830991 23.5170337,24.0253148 23.6102684,23.6677859 C23.2086925,23.7168184 22.8069858,23.8499979 22.4052792,23.9833051 C22.1685965,23.8079883 21.6091886,23.3591618 21.5661673,23.3100016 C22.0107645,23.3240473 22.9432418,23.3380931 22.9648178,23.3310702 C22.7997938,22.9524727 22.6347698,22.5736197 22.4698765,22.1950221 C22.5343431,22.1249209 22.5989405,22.054692 22.6635378,21.9845908 C23.0579217,22.0687378 23.4525671,22.1528848 23.846951,22.2370318 C23.7967377,21.8514113 23.681927,21.4656631 23.5672471,21.079915 C23.6030764,21.0449282 23.6748657,20.9746993 23.6748657,20.9746993 C23.6748657,20.9746993 24.6729865,21.1625297 25.0949616,21.1851306 C25.0017269,20.7292813 24.9084922,20.2734319 24.8152576,19.8175825 C24.8941082,19.7404584 24.9730896,19.6633343 25.0519402,19.5862103 C25.5969641,19.7334356 26.1421188,19.8806608 26.6872734,20.0280138 C26.4290147,19.5862103 26.170756,19.1444067 25.9126281,18.7026031 C25.9126281,18.6815344 27.4587803,19.2086342 27.7416226,19.3337693 C27.4761719,18.7586585 26.9455321,17.6085646 26.9455321,17.6085646 C26.9455321,17.6085646 28.1485598,17.9235731 28.4946918,18.0503682 C28.2866465,17.6155875 28.0571559,17.1806791 27.8276653,16.7458984 C27.8276653,16.7249574 28.9640034,16.9422839 29.4199771,17.019408 C29.2263158,16.5777321 29.0326545,16.1358009 28.8389932,15.6939973 C28.8820145,15.6659057 29.7968386,16.215351 29.7968386,16.215351 C29.7968386,16.215351 31.4453789,7.76438906 22.0179565,5.53225944 C22.0179565,5.53225944 21.9461672,2.27810789 21.9104686,0.651223644 Z" id="Fill-1" fill="#EF1718"></path>
            <g id="Group-7" transform="translate(20.160761, 7.891287)">
                <ellipse id="Oval-12" fill="#FFFFFF" cx="3.87706951" cy="3.94564353" rx="3.87706951" ry="3.94564353"></ellipse>
                <ellipse id="Oval-12" fill="#006FBE" cx="5.60021152" cy="3.94564353" rx="2.15392751" ry="2.19202418"></ellipse>
            </g>
            <g id="Group-7" transform="translate(12.406622, 7.891287)">
                <ellipse id="Oval-12" fill="#FFFFFF" cx="3.87706951" cy="3.94564353" rx="3.87706951" ry="3.94564353"></ellipse>
                <ellipse id="Oval-12" fill="#006FBE" cx="5.60021152" cy="3.94564353" rx="2.15392751" ry="2.19202418"></ellipse>
            </g>
        </g>
    </g>
</svg>